<?xml version="1.0" encoding="UTF-8"?>
<!DOCTYPE svg PUBLIC "-//W3C//DTD SVG 1.1//EN" "http://www.w3.org/Graphics/SVG/1.1/DTD/svg11.dtd">
<!-- Creator: CorelDRAW X8 -->
<?xml-stylesheet href="14052-Безымянный-1-de63f8a5-56e9-49e6-86fc-23f57307e726.css" type="text/css"?>
<svg xmlns="http://www.w3.org/2000/svg" xml:space="preserve" width="210mm" height="297mm" version="1.1" style="shape-rendering:geometricPrecision; text-rendering:geometricPrecision; image-rendering:optimizeQuality; fill-rule:evenodd; clip-rule:evenodd"
viewBox="0 0 21000 29700"
 xmlns:xlink="http://www.w3.org/1999/xlink">
        <path d="M10500 14241c-336,0 -609,273 -609,609 0,336 273,609 609,609 336,0 609,-273 609,-609 0,-336 -273,-609 -609,-609zm0 53c307,0 556,249 556,556 0,307 -249,556 -556,556 -307,0 -556,-249 -556,-556 0,-307 249,-556 556,-556zm-317 530l0 52c523,0 111,0 635,0l0 -52c-524,0 -112,0 -635,0z" />
</svg>
